<svg width="25" height="25" viewBox="0 0 25 25" fill="none" xmlns="http://www.w3.org/2000/svg">
<path d="M11.6535 0.158203C20.932 -0.175617 27.4762 9.53059 23.0168 17.9795C21.3379 21.1626 18.2245 23.4289 14.7238 24.1934C14.4269 24.2583 14.1292 24.2972 13.8362 24.3311C13.541 24.3651 13.2536 24.3936 12.9651 24.4365L12.9572 24.4375H12.9494C6.40605 24.7196 0.781018 19.934 0.197479 13.3281C-0.352367 7.10655 3.98195 1.52523 10.0656 0.352539L10.4612 0.286133C10.8564 0.228045 11.2531 0.191748 11.6467 0.158203H11.6535ZM10.2805 15.3721C8.06458 15.5427 6.0744 17.3054 5.43576 19.417C5.362 19.66 5.31152 19.8966 5.24826 20.1504C7.6454 22.3823 10.8688 23.2417 14.0793 22.7637C15.8643 22.4294 17.9641 21.538 19.2463 20.2363C19.0557 18.7245 18.3355 17.5054 17.1379 16.5527H17.1369C16.0767 15.7079 15.1801 15.3721 13.8713 15.3721H10.2805ZM11.8313 1.72168L11.8303 1.7207C11.2422 1.77036 10.6813 1.82829 10.1125 1.95215C3.02547 3.48693 -0.478095 11.6002 3.22775 17.7334C3.45192 18.1049 3.71014 18.4563 3.97189 18.8115C4.75757 16.848 5.87497 15.3405 7.93771 14.4102C8.37597 14.2128 8.84857 14.0175 9.34299 13.9199C8.23759 13.095 7.47763 12.0654 7.20432 10.6348C6.67268 7.85856 8.57076 5.0954 11.3498 4.59082C11.8569 4.49987 12.3512 4.51684 12.8362 4.50684H12.8557L12.8742 4.51074C13.2464 4.59918 13.6388 4.67185 14.0197 4.80859C18.0435 6.24778 18.6385 11.5135 15.2024 13.9404C17.5787 14.4964 19.8614 16.4583 20.5666 18.833C20.674 18.6906 20.7838 18.5507 20.8791 18.4199C24.4302 13.5585 23.0338 6.78803 18.0041 3.44141C16.241 2.26884 13.947 1.63985 11.8313 1.72168ZM14.6721 7.04004C13.9976 6.39837 13.1205 6.01475 12.2317 6.11523L12.2238 6.11621H12.216C9.09917 6.15343 7.49065 10.0466 9.77756 12.2314C10.4797 12.902 11.3779 13.2693 12.3488 13.2461L12.3908 13.2451L12.5813 13.2295C14.5353 13.0299 15.99 11.4557 15.8596 9.44434C15.803 8.5687 15.3467 7.68196 14.6721 7.04004Z" fill="#DFE7E9" stroke="#DFE7E9" stroke-width="0.3"/>
</svg>
